<?xml version="1.0" encoding="utf-8"?><svg xml:space="preserve" viewBox="0 0 100 100" y="0" x="0" xmlns="http://www.w3.org/2000/svg" id="圖層_1" version="1.1" width="200px" height="200px" xmlns:xlink="http://www.w3.org/1999/xlink" style="width:100%;height:100%;background-size:initial;background-repeat-y:initial;background-repeat-x:initial;background-position-y:initial;background-position-x:initial;background-origin:initial;background-image:initial;background-color:();background-clip:initial;background-attachment:initial;animation-play-state:paused" ><g class="ldl-scale" style="transform-origin:50% 50%;transform:rotate(0deg) scale(0.8, 0.8);animation-play-state:paused" ><path d="M23.833 28.287h52.615v61.006H23.833z" fill="#f5e6c8" style="fill:rgb(21, 33, 43);animation-play-state:paused" ></path>
<path fill="#666" d="M55.864 13.621c.003-.082.012-.162.012-.245 0-3.24-2.636-5.876-5.876-5.876s-5.876 2.636-5.876 5.876c0 .083.009.163.012.245h-1.72a5.387 5.387 0 0 0 0 10.774h15.169a5.387 5.387 0 0 0 0-10.774h-1.721zm-8.802-.245c0-1.62 1.318-2.938 2.938-2.938s2.938 1.318 2.938 2.938c0 .084-.018.163-.025.245h-5.827c-.006-.082-.024-.161-.024-.245z" id="XMLID_337_" style="fill:rgb(48, 157, 142);animation-play-state:paused" ></path>
<path fill="#f8b26a" d="M64.912 18.644c.006.121.018.241.018.364 0 4.05-3.295 7.345-7.345 7.345H42.416c-4.05 0-7.345-3.295-7.345-7.345 0-.123.012-.243.018-.364H24.554a3.936 3.936 0 0 0-3.936 3.936v65.983a3.936 3.936 0 0 0 3.936 3.936h50.891a3.936 3.936 0 0 0 3.936-3.936V22.58a3.936 3.936 0 0 0-3.936-3.936H64.912zm5.636 68.959H29.452a3.936 3.936 0 0 1-3.936-3.936V35.019a3.936 3.936 0 0 1 3.936-3.936h41.097a3.936 3.936 0 0 1 3.936 3.936v48.648a3.937 3.937 0 0 1-3.937 3.936z" id="XMLID_334_" style="fill:rgb(32, 70, 81);animation-play-state:paused" ></path>
<path d="M41.18 36.098l-5.281 5.281-3.132-3.131-1.969 1.969 3.131 3.132 1.97 1.969 7.25-7.251z" fill="#849b87" id="XMLID_331_" style="fill:rgb(36, 112, 116);animation-play-state:paused" ></path>
<path d="M46.415 37.057h21.22V40h-21.22z" fill="#333" id="XMLID_326_" style="fill:rgb(85, 200, 157);animation-play-state:paused" ></path>
<path d="M46.415 41.814h13.198v2.943H46.415z" fill="#333" id="XMLID_328_" style="fill:rgb(85, 200, 157);animation-play-state:paused" ></path>
<path d="M41.18 48.83l-5.281 5.282-3.132-3.132-1.969 1.969 3.131 3.132 1.97 1.969 7.25-7.251z" fill="#849b87" id="XMLID_376_" style="fill:rgb(36, 112, 116);animation-play-state:paused" ></path>
<path d="M46.415 49.789h21.22v2.943h-21.22z" fill="#333" id="XMLID_336_" style="fill:rgb(85, 200, 157);animation-play-state:paused" ></path>
<path d="M46.415 54.546h13.198v2.943H46.415z" fill="#333" id="XMLID_335_" style="fill:rgb(85, 200, 157);animation-play-state:paused" ></path>
<path d="M41.18 60.583l-5.281 5.281-3.132-3.131-1.969 1.969 3.131 3.131 1.97 1.97 7.25-7.251z" fill="#849b87" id="XMLID_93_" style="fill:rgb(36, 112, 116);animation-play-state:paused" ></path>
<path d="M46.415 61.541h21.22v2.943h-21.22z" fill="#333" id="XMLID_92_" style="fill:rgb(85, 200, 157);animation-play-state:paused" ></path>
<path d="M46.415 66.299h13.198v2.943H46.415z" fill="#333" id="XMLID_91_" style="fill:rgb(85, 200, 157);animation-play-state:paused" ></path>
<path d="M41.18 73.315l-5.281 5.282-3.132-3.132-1.969 1.969 3.131 3.132 1.97 1.969 7.25-7.251z" fill="#849b87" id="XMLID_96_" style="fill:rgb(36, 112, 116);animation-play-state:paused" ></path>
<path d="M46.415 74.274h21.22v2.943h-21.22z" fill="#333" id="XMLID_95_" style="fill:rgb(85, 200, 157);animation-play-state:paused" ></path>
<path d="M46.415 79.031h13.198v2.943H46.415z" fill="#333" id="XMLID_94_" style="fill:rgb(85, 200, 157);animation-play-state:paused" ></path>
</g></svg>